HIERARCHY
ROOT hip
{
	OFFSET 0.000000 0.000000 0.000000
	CHANNELS 6 Xposition Yposition Zposition Xrotation Zrotation Yrotation 
	JOINT abdomen
	{
		OFFSET 0.000000 3.422050 0.000000
		CHANNELS 3 Xrotation Zrotation Yrotation 
		JOINT chest
		{
			OFFSET 0.000000 8.486693 -0.684411
			CHANNELS 3 Xrotation Zrotation Yrotation 
			JOINT neck
			{
				OFFSET 0.000000 10.266162 -0.273764
				CHANNELS 3 Xrotation Zrotation Yrotation 
				JOINT head
				{
					OFFSET 0.000000 3.148285 0.000000
					CHANNELS 3 Xrotation Zrotation Yrotation 
					End Site
					{
						OFFSET 0.000000 3.148289 0.000000
					}
				}
			}
			JOINT lCollar
			{
				OFFSET 3.422053 6.707223 -0.821293
				CHANNELS 3 Yrotation Zrotation Xrotation 
				JOINT lShldr
				{
					OFFSET 3.285171 0.000000 0.000000
					CHANNELS 3 Zrotation Yrotation Xrotation 
					JOINT lForeArm
					{
						OFFSET 10.129278 0.000000 0.000000
						CHANNELS 3 Yrotation Zrotation Xrotation 
						JOINT lHand
						{
							OFFSET 8.486692 0.000000 0.000000
							CHANNELS 3 Zrotation Yrotation Xrotation 
							End Site
							{
								OFFSET 4.106464 0.000000 0.000000
							}
						}
					}
				}
			}
			JOINT rCollar
			{
				OFFSET -3.558935 6.707223 -0.821293
				CHANNELS 3 Yrotation Zrotation Xrotation 
				JOINT rShldr
				{
					OFFSET -3.148289 0.000000 0.000000
					CHANNELS 3 Zrotation Yrotation Xrotation 
					JOINT rForeArm
					{
						OFFSET -10.266159 0.000000 0.000000
						CHANNELS 3 Yrotation Zrotation Xrotation 
						JOINT rHand
						{
							OFFSET -8.349810 0.000000 0.000000
							CHANNELS 3 Zrotation Yrotation Xrotation 
							End Site
							{
								OFFSET -4.106464 0.000000 0.000000
							}
						}
					}
				}
			}
		}
	}
	JOINT lThigh
	{
		OFFSET 5.338403 -1.642589 1.368821
		CHANNELS 3 Xrotation Zrotation Yrotation 
		JOINT lShin
		{
			OFFSET -2.053232 -20.121670 0.000000
			CHANNELS 3 Xrotation Zrotation Yrotation 
			JOINT lFoot
			{
				OFFSET 0.000000 -19.300380 -1.231939
				CHANNELS 3 Xrotation Yrotation Zrotation 
				End Site
				{
					OFFSET 0.000000 -2.463878 4.653993
				}
			}
		}
	}
	JOINT rThigh
	{
		OFFSET -5.338403 -1.642589 1.368821
		CHANNELS 3 Xrotation Zrotation Yrotation 
		JOINT rShin
		{
			OFFSET 2.053232 -20.121670 0.000000
			CHANNELS 3 Xrotation Zrotation Yrotation 
			JOINT rFoot
			{
				OFFSET 0.000000 -19.300380 -1.231939
				CHANNELS 3 Xrotation Yrotation Zrotation 
				End Site
				{
					OFFSET 0.000000 -2.463878 4.653993
				}
			}
		}
	}
}
MOTION
Frames: 20
Frame Time: 0.055442
0.000000 4.831345 0.714363 -82.127457 0.000000 0.000000 18.540285 0.000000 0.000000 -0.175960 -0.119767 -0.638546 20.083796 16.999067 7.997007 6.640189 10.998112 12.998526 11.521039 9.792859 10.678160 -82.008766 32.620388 -1.475952 -79.044334 -4.380027 33.903442 -11.915986 0.439379 27.981903 -11.473783 -10.144114 10.536239 81.970131 -32.713032 -1.461144 79.315033 4.377781 33.911007 12.032909 -0.477377 27.977930 -68.324120 38.231293 -36.613758 104.847832 -1.765498 -0.364747 19.047682 2.235660 -0.479951 -29.859863 -60.002373 30.000149 40.602169 1.473428 0.051374 19.403948 -2.397061 1.119385 
0.000000 4.831345 0.748380 -81.751984 0.000000 0.000000 18.540285 0.000000 0.000000 -1.108950 -0.119734 -0.638511 19.557938 16.999073 7.996999 5.871991 10.998088 12.998541 11.619781 10.241288 11.167120 -82.264771 32.726974 -1.588777 -79.044334 -4.380026 33.903442 -12.149597 0.460185 28.190147 -11.569171 -10.608786 11.018594 82.225410 -32.823944 -1.573676 79.315033 4.377781 33.911007 12.272224 -0.500086 28.185900 -68.704811 38.040543 -36.814171 104.847832 -1.765498 -0.364747 19.066418 2.258970 -0.741742 -30.716061 -60.002338 30.000151 41.204323 1.448152 0.050965 19.440218 -2.426807 1.411982 
0.000000 4.831345 0.782397 -81.376534 0.000000 0.000000 18.540285 0.000000 0.000000 -2.041691 -0.119700 -0.638477 19.031828 16.999081 7.996995 5.102991 10.998065 12.998559 11.714754 10.690465 11.655928 -82.521324 32.833141 -1.702300 -79.044334 -4.380027 33.903442 -12.383119 0.481840 28.398294 -11.660709 -11.074168 11.500843 82.481247 -32.934433 -1.686935 79.315033 4.377781 33.911007 12.511447 -0.523663 28.393761 -69.083641 37.848751 -37.012440 104.847832 -1.765498 -0.364747 19.085251 2.282194 -1.003539 -31.572035 -60.002270 30.000128 41.806404 1.422885 0.050291 19.476641 -2.456367 1.704597 
0.000000 4.831345 0.816415 -81.001083 0.000000 0.000000 18.540285 0.000000 0.000000 -2.974063 -0.119665 -0.638443 18.505480 16.999084 7.996987 4.333262 10.998042 12.998577 11.805943 11.140327 12.144617 -82.778427 32.938877 -1.816516 -79.044334 -4.380027 33.903439 -12.616550 0.504342 28.606342 -11.748374 -11.540191 11.983014 82.737686 -33.044506 -1.800922 79.315033 4.377781 33.911007 12.750573 -0.548107 28.601521 -69.460625 37.655945 -37.208580 104.847832 -1.765498 -0.364747 19.104198 2.305331 -1.265340 -32.427738 -60.002224 30.000116 42.408394 1.397630 0.049351 19.513208 -2.485739 1.997226 
0.000000 4.831345 0.850432 -80.625702 0.000000 0.000000 18.540285 0.000000 0.000000 -3.905939 -0.119630 -0.638410 17.978922 16.999090 7.996981 3.562868 10.998023 12.998599 11.893332 11.590808 12.633204 -83.036079 33.044182 -1.931435 -79.044334 -4.380026 33.903442 -12.849888 0.527689 28.814287 -11.832149 -12.006777 12.465127 82.994659 -33.154129 -1.915626 79.315033 4.377781 33.911007 12.989596 -0.573415 28.809164 -69.835793 37.462154 -37.402603 104.847832 -1.765498 -0.364747 19.123245 2.328379 -1.527142 -33.283073 -60.002190 30.000116 43.010231 1.372392 0.048146 19.549927 -2.514921 2.289864 
0.000000 4.831345 0.884449 -80.250343 0.000000 0.000000 18.540285 0.000000 0.000000 -4.837198 -0.119595 -0.638378 17.452177 16.999096 7.996975 2.791881 10.998000 12.998618 11.976907 12.041844 13.121720 -83.294273 33.149040 -2.047047 -79.044334 -4.380026 33.903442 -13.083121 0.551881 29.022120 -11.912024 -12.473875 12.947227 83.252243 -33.263329 -2.031063 79.315033 4.377781 33.911007 13.228506 -0.599587 29.016684 -70.209099 37.267361 -37.594494 104.847832 -1.765498 -0.364747 19.142399 2.351339 -1.788942 -34.137878 -60.002098 30.000076 43.611893 1.347175 0.046676 19.586798 -2.543916 2.582508 
0.000000 4.831345 0.918467 -79.875031 0.000000 0.000000 18.540285 0.000000 0.000000 -5.767722 -0.119559 -0.638346 16.925259 16.999102 7.996967 2.020366 10.997978 12.998637 12.056645 12.493366 13.610192 -83.553032 33.253464 -2.163356 -79.044334 -4.380026 33.903442 -13.316244 0.576916 29.229826 -11.987976 -12.941408 13.429333 83.510376 -33.372078 -2.147223 79.315033 4.377781 33.911007 13.467299 -0.626621 29.224068 -70.580597 37.071613 -37.784279 104.847832 -1.765498 -0.364747 19.161655 2.374211 -2.050737 -34.992161 -60.002064 30.000069 44.213356 1.321983 0.044942 19.623812 -2.572719 2.875155 
0.000000 4.831345 0.952484 -79.499771 0.000000 0.000000 18.540285 0.000000 0.000000 -6.697380 -0.119522 -0.638314 16.398201 16.999107 7.996961 1.248399 10.997960 12.998659 12.132542 12.945315 14.098650 -83.812325 33.357426 -2.280363 -79.044334 -4.380024 33.903442 -13.549251 0.602793 29.437416 -12.059993 -13.409315 13.911486 83.769073 -33.480381 -2.264107 79.315033 4.377781 33.911007 13.705971 -0.654518 29.431322 -70.950272 36.874924 -37.971962 104.847832 -1.765498 -0.364747 19.181019 2.396992 -2.312526 -35.845764 -60.002026 30.000059 44.814571 1.296820 0.042945 19.660963 -2.601329 3.167798 
0.000000 4.831345 0.986501 -79.124565 0.000000 0.000000 18.540285 0.000000 0.000000 -7.626061 -0.119486 -0.638284 15.871018 16.999113 7.996954 0.476043 10.997939 12.998681 12.204572 13.397619 14.587112 -84.072174 33.460945 -2.398061 -79.044334 -4.380027 33.903439 -13.782140 0.629511 29.644878 -12.128055 -13.877522 14.393707 84.028358 -33.588238 -2.381713 79.315033 4.377781 33.911007 13.944511 -0.683272 29.638439 -71.318138 36.677299 -38.157547 104.847832 -1.765498 -0.364747 19.200481 2.419683 -2.574304 -36.698597 -60.001961 30.000029 45.415539 1.271691 0.040685 19.698263 -2.629747 3.460437 
0.000000 4.831345 1.020518 -78.749458 0.000000 0.000000 18.540285 0.000000 0.000000 -8.553638 -0.119448 -0.638254 15.343740 16.999123 7.996950 -0.296628 10.997914 12.998697 12.272725 13.850219 15.075618 -84.332542 33.564007 -2.516450 -79.044334 -4.380027 33.903442 -14.014896 0.657068 29.852196 -12.192145 -14.345965 14.876033 84.288200 -33.695648 -2.500043 79.315033 4.377781 33.911007 14.182909 -0.712883 29.845390 -71.684189 36.478752 -38.341030 104.847832 -1.765498 -0.364747 19.220049 2.442283 -2.836070 -37.550568 -60.001896 29.999994 46.016182 1.246599 0.038162 19.735706 -2.657972 3.753066 
0.000000 4.831345 1.054536 -78.374428 0.000000 0.000000 18.540285 0.000000 0.000000 -9.479991 -0.119410 -0.638224 14.816378 16.999130 7.996943 -1.069547 10.997898 12.998722 12.336984 14.303043 15.564184 -84.593475 33.666615 -2.635536 -79.044334 -4.380026 33.903442 -14.247518 0.685462 30.059372 -12.252253 -14.814580 15.358497 84.548615 -33.802589 -2.619097 79.315033 4.377781 33.911007 14.421171 -0.743351 30.052204 -72.048439 36.279316 -38.522442 104.847832 -1.765498 -0.364747 19.239717 2.464791 -3.097820 -38.401608 -60.001846 29.999977 46.616493 1.221549 0.035378 19.773281 -2.686001 4.045680 
0.000000 4.831345 1.088553 -77.999466 0.000000 0.000000 18.540285 0.000000 0.000000 -10.405008 -0.119372 -0.638196 14.288960 16.999132 7.996935 -1.842638 10.997876 12.998741 12.397333 14.756028 16.052847 -84.854958 33.768753 -2.755314 -79.044334 -4.380027 33.903442 -14.479998 0.714691 30.266396 -12.308355 -15.283297 15.841135 84.809593 -33.909069 -2.738871 79.315033 4.377781 33.911007 14.659277 -0.774673 30.258841 -72.410919 36.079002 -38.701786 104.847832 -1.765498 -0.364747 19.259481 2.487206 -3.359551 -39.251610 -60.001793 29.999950 47.216446 1.196545 0.032334 19.811003 -2.713834 4.338278 
0.000000 4.831345 1.122570 -77.624619 0.000000 0.000000 18.540285 0.000000 0.000000 -11.328568 -0.119334 -0.638168 13.761509 16.999136 7.996928 -2.615839 10.997860 12.998765 12.453759 15.209114 16.541641 -85.116974 33.870426 -2.875781 -79.044334 -4.380025 33.903442 -14.712332 0.744756 30.473272 -12.360438 -15.752048 16.323973 85.071144 -34.015091 -2.859365 79.315033 4.377781 33.911007 14.897232 -0.806848 30.465324 -72.771606 35.877831 -38.879059 104.847832 -1.765498 -0.364747 19.279354 2.509528 -3.621263 -40.100487 -60.001766 29.999937 47.815983 1.171590 0.029031 19.848860 -2.741470 4.630854 
0.000000 4.831345 1.156587 -77.249863 0.000000 0.000000 18.540285 0.000000 0.000000 -12.250556 -0.119295 -0.638140 13.234051 16.999146 7.996924 -3.389072 10.997837 12.998785 12.506248 15.662231 17.030588 -85.379501 33.971626 -2.996930 -79.044334 -4.380026 33.903442 -14.944510 0.775651 30.679974 -12.408484 -16.220768 16.807049 85.333267 -34.120632 -2.980583 79.315033 4.377781 33.911007 15.135018 -0.839872 30.671623 -73.130539 35.675812 -39.054291 104.847832 -1.765498 -0.364747 19.299314 2.531756 -3.882950 -40.948120 -60.001690 29.999891 48.415104 1.146690 0.025469 19.886848 -2.768908 4.923406 
0.000000 4.831345 1.190605 -76.875229 0.000000 0.000000 18.540285 0.000000 0.000000 -13.170851 -0.119255 -0.638113 12.706600 16.999151 7.996916 -4.162272 10.997820 12.998809 12.554778 16.115316 17.519722 -85.642601 34.072353 -3.118775 -79.044334 -4.380026 33.903442 -15.176536 0.807378 30.886518 -12.452475 -16.689386 17.290396 85.595924 -34.225704 -3.102511 79.315033 4.377781 33.911007 15.372630 -0.873744 30.877735 -73.487686 35.472950 -39.227455 104.847832 -1.765498 -0.364747 19.319384 2.553889 -4.144612 -41.794453 -60.001648 29.999865 49.013744 1.121847 0.021650 19.924971 -2.796145 5.215926 
0.000000 4.831345 1.224622 -76.500717 0.000000 0.000000 18.540285 0.000000 0.000000 -14.089349 -0.119215 -0.638088 12.179184 16.999157 7.996909 -4.935366 10.997801 12.998831 12.599342 16.568300 18.009068 -85.906204 34.172600 -3.241304 -79.044334 -4.380026 33.903442 -15.408382 0.839932 31.092878 -12.492399 -17.157846 17.774055 85.859161 -34.330299 -3.225160 79.315033 4.377781 33.911007 15.610073 -0.908462 31.083672 -73.843109 35.269295 -39.398605 104.847832 -1.765498 -0.364747 19.339548 2.575927 -4.406244 -42.639374 -60.001579 29.999825 49.611900 1.097065 0.017575 19.963226 -2.823184 5.508414 
0.000000 4.831345 1.258639 -76.126320 0.000000 0.000000 18.540285 0.000000 0.000000 -15.005931 -0.119175 -0.638062 11.651822 16.999161 7.996902 -5.708283 10.997783 12.998855 12.639918 17.021126 18.498669 -86.170380 34.272369 -3.364517 -79.044334 -4.380026 33.903442 -15.640061 0.873313 31.299055 -12.528234 -17.626070 18.258057 86.122971 -34.434418 -3.348528 79.315033 4.377781 33.911007 15.847332 -0.944025 31.289404 -74.196739 35.064819 -39.567696 104.847832 -1.765498 -0.364747 19.359812 2.597870 -4.667846 -43.482826 -60.001534 29.999792 50.209518 1.072349 0.013245 20.001617 -2.850022 5.800868 
0.000000 4.831345 1.292657 -75.752060 0.000000 0.000000 18.540285 0.000000 0.000000 -15.920483 -0.119135 -0.638037 11.124539 16.999166 7.996895 -6.480954 10.997765 12.998876 12.676497 17.473722 18.988544 -86.435066 34.371647 -3.488414 -79.044334 -4.380026 33.903442 -15.871564 0.907518 31.505054 -12.559964 -18.093998 18.742432 86.387321 -34.538036 -3.472611 79.315033 4.377781 33.911007 16.084400 -0.980429 31.494938 -74.548691 34.859585 -39.734798 104.847832 -1.765498 -0.364747 19.380167 2.619715 -4.929411 -44.324699 -60.001492 29.999762 50.806580 1.047703 0.008662 20.040134 -2.876657 6.093277 
0.000000 4.831345 1.326674 -75.377960 0.000000 0.000000 18.540285 0.000000 0.000000 -16.832907 -0.119094 -0.638013 10.597358 16.999172 7.996888 -7.253308 10.997747 12.998899 12.709059 17.926027 19.478735 -86.700294 34.470444 -3.612990 -79.044334 -4.380026 33.903442 -16.102882 0.942546 31.710852 -12.587579 -18.561571 19.227230 86.652245 -34.641178 -3.597409 79.315033 4.377781 33.911007 16.321278 -1.017672 31.700268 -74.898872 34.653572 -39.899879 104.847832 -1.765498 -0.364747 19.400625 2.641464 -5.190942 -45.164913 -60.001450 29.999731 51.403046 1.023130 0.003828 20.078770 -2.903089 6.385643 
0.000000 4.831345 1.360691 -75.004013 0.000000 0.000000 18.540285 0.000000 0.000000 -17.743086 -0.119053 -0.637990 10.070297 16.999176 7.996881 -8.025276 10.997729 12.998923 12.737594 18.377983 19.969269 -86.966042 34.568737 -3.738250 -79.044334 -4.380026 33.903442 -16.334007 0.978393 31.916456 -12.611053 -19.028709 19.712477 86.917717 -34.743813 -3.722915 79.315033 4.377781 33.911007 16.557949 -1.055752 31.905384 -75.247360 34.446827 -40.062965 104.847832 -1.765498 -0.364747 19.421177 2.663115 -5.452432 -46.003368 -60.001396 29.999687 51.998901 0.998634 -0.001256 20.117538 -2.929317 6.677959 
